<?xml version="1.0" encoding="utf-8"?>
<!-- Generator: Adobe Illustrator 27.9.0, SVG Export Plug-In . SVG Version: 6.00 Build 0)  -->
<svg version="1.1" id="Lager_1" xmlns="http://www.w3.org/2000/svg" xmlns:xlink="http://www.w3.org/1999/xlink" x="0px" y="0px"
	 viewBox="0 0 200 200" style="enable-background:new 0 0 200 200;" xml:space="preserve">
<style type="text/css">
	.st0{fill:#BA0000;}
</style>
<g>
	<path class="st0" d="M35.65,151.75c0-7.59,5.53-13.75,12.35-13.75s12.35,6.16,12.35,13.75c0,7.59-5.53,13.75-12.35,13.75
		S35.65,159.34,35.65,151.75z"/>
</g>
<g>
	<path class="st0" d="M68.63,172.29c0-7.59,5.53-13.75,12.35-13.75s12.35,6.16,12.35,13.75c0,7.59-5.53,13.75-12.35,13.75
		S68.63,179.89,68.63,172.29z"/>
</g>
<g>
	<path class="st0" d="M108.63,172.29c0-7.59,5.53-13.75,12.35-13.75s12.35,6.16,12.35,13.75c0,7.59-5.53,13.75-12.35,13.75
		S108.63,179.89,108.63,172.29z"/>
</g>
<g>
	<path class="st0" d="M140.63,151.29c0-7.59,5.53-13.75,12.35-13.75s12.35,6.16,12.35,13.75c0,7.59-5.53,13.75-12.35,13.75
		S140.63,158.89,140.63,151.29z"/>
</g>
<g>
	<path class="st0" d="M162.63,119.29c0-7.59,5.53-13.75,12.35-13.75s12.35,6.16,12.35,13.75c0,7.59-5.53,13.75-12.35,13.75
		S162.63,126.89,162.63,119.29z"/>
</g>
<g>
	<path class="st0" d="M160.63,81.29c0-7.59,5.53-13.75,12.35-13.75s12.35,6.16,12.35,13.75c0,7.59-5.53,13.75-12.35,13.75
		S160.63,88.89,160.63,81.29z"/>
</g>
<g>
	<path class="st0" d="M15.99,119.32c0-7.59,5.53-13.75,12.35-13.75s12.35,6.16,12.35,13.75c0,7.59-5.53,13.75-12.35,13.75
		S15.99,126.91,15.99,119.32z"/>
</g>
<g>
	<path class="st0" d="M15.99,81.32c0-7.59,5.53-13.75,12.35-13.75s12.35,6.16,12.35,13.75c0,7.59-5.53,13.75-12.35,13.75
		S15.99,88.91,15.99,81.32z"/>
</g>
<g>
	<path class="st0" d="M35.99,47.32c0-7.59,5.53-13.75,12.35-13.75s12.35,6.16,12.35,13.75c0,7.59-5.53,13.75-12.35,13.75
		S35.99,54.91,35.99,47.32z"/>
</g>
<g>
	<path class="st0" d="M68.99,28.32c0-7.59,5.53-13.75,12.35-13.75s12.35,6.16,12.35,13.75c0,7.59-5.53,13.75-12.35,13.75
		S68.99,35.91,68.99,28.32z"/>
</g>
<g>
	<path class="st0" d="M108.99,28.32c0-7.59,5.53-13.75,12.35-13.75c6.82,0,12.35,6.16,12.35,13.75c0,7.59-5.53,13.75-12.35,13.75
		C114.52,42.06,108.99,35.91,108.99,28.32z"/>
</g>
<g>
	<path class="st0" d="M140.99,47.32c0-7.59,5.53-13.75,12.35-13.75s12.35,6.16,12.35,13.75c0,7.59-5.53,13.75-12.35,13.75
		S140.99,54.91,140.99,47.32z"/>
</g>
</svg>
