<?xml version="1.0" encoding="utf-8"?>
<!-- Generator: Adobe Illustrator 27.9.0, SVG Export Plug-In . SVG Version: 6.00 Build 0)  -->
<svg version="1.1" id="Lager_1" xmlns="http://www.w3.org/2000/svg" xmlns:xlink="http://www.w3.org/1999/xlink" x="0px" y="0px"
	 viewBox="0 0 200 200" style="enable-background:new 0 0 200 200;" xml:space="preserve">
<style type="text/css">
	.st0{fill:#BA0000;}
</style>
<g>
	<g id="_x3C_Radiell_upprepning_x3E__00000058547476946804376010000016643326431002319026_">
		<g>
			<g>
				<path class="st0" d="M99.32,179.15c-0.01,4.51-0.01,9.02-0.02,13.53c0,0.64,1,0.64,1,0c0.01-4.51,0.01-9.02,0.02-13.53
					C100.32,178.51,99.32,178.51,99.32,179.15L99.32,179.15z"/>
			</g>
		</g>
	</g>
	<g id="_x3C_Radiell_upprepning_x3E__00000176749485645841777770000005585438556674954681_">
		<g>
			<g>
				<path class="st0" d="M77.05,175.75c-1.28,4.33-2.55,8.65-3.83,12.98c-0.18,0.62,0.78,0.88,0.96,0.27
					c1.28-4.33,2.55-8.65,3.83-12.98C78.2,175.39,77.23,175.13,77.05,175.75L77.05,175.75z"/>
			</g>
		</g>
	</g>
	<g id="_x3C_Radiell_upprepning_x3E__00000008854349526172808060000015451394540254207134_">
		<g>
			<g>
				<path class="st0" d="M56.64,166.21c-2.44,3.79-4.88,7.58-7.33,11.37c-0.35,0.54,0.52,1.04,0.86,0.5
					c2.44-3.79,4.88-7.58,7.33-11.37C57.85,166.17,56.99,165.67,56.64,166.21L56.64,166.21z"/>
			</g>
		</g>
	</g>
	<g id="_x3C_Radiell_upprepning_x3E__00000036249977899148057330000012201465261908620420_">
		<g>
			<g>
				<path class="st0" d="M39.74,151.3c-3.41,2.95-6.82,5.9-10.23,8.85c-0.49,0.42,0.22,1.13,0.71,0.71
					c3.41-2.95,6.82-5.9,10.23-8.85C40.93,151.59,40.22,150.88,39.74,151.3L39.74,151.3z"/>
			</g>
		</g>
	</g>
	<g id="_x3C_Radiell_upprepning_x3E__00000047749830264649998620000011114176479910850449_">
		<g>
			<g>
				<path class="st0" d="M27.72,132.23c-4.1,1.87-8.21,3.74-12.31,5.6c-0.58,0.27-0.08,1.13,0.5,0.86c4.1-1.87,8.21-3.74,12.31-5.6
					C28.81,132.83,28.3,131.97,27.72,132.23L27.72,132.23z"/>
			</g>
		</g>
	</g>
	<g id="_x3C_Radiell_upprepning_x3E__00000134219896619802936310000001566195155552373390_">
		<g>
			<g>
				<path class="st0" d="M21.56,110.55c-4.46,0.64-8.93,1.27-13.39,1.91c-0.63,0.09-0.36,1.05,0.27,0.96
					c4.46-0.64,8.93-1.27,13.39-1.91C22.46,111.42,22.19,110.46,21.56,110.55L21.56,110.55z"/>
			</g>
		</g>
	</g>
	<g id="_x3C_Radiell_upprepning_x3E__00000152964447629881914960000007093943382580298928_">
		<g>
			<g>
				<path class="st0" d="M21.89,88.02c-4.46-0.65-8.93-1.29-13.39-1.94c-0.63-0.09-0.9,0.87-0.27,0.96
					c4.46,0.65,8.93,1.29,13.39,1.94C22.26,89.08,22.53,88.11,21.89,88.02L21.89,88.02z"/>
			</g>
		</g>
	</g>
	<g id="_x3C_Radiell_upprepning_x3E__00000033362197635707825190000004274465394321481891_">
		<g>
			<g>
				<path class="st0" d="M28.43,66.48c-4.1-1.88-8.2-3.76-12.3-5.63c-0.58-0.27-1.09,0.6-0.5,0.86c4.1,1.88,8.2,3.76,12.3,5.63
					C28.5,67.61,29.01,66.75,28.43,66.48L28.43,66.48z"/>
			</g>
		</g>
	</g>
	<g id="_x3C_Radiell_upprepning_x3E__00000119806572364754295910000000819077334667539860_">
		<g>
			<g>
				<path class="st0" d="M40.76,47.64c-3.4-2.96-6.81-5.91-10.21-8.87c-0.48-0.42-1.19,0.28-0.71,0.71
					c3.4,2.96,6.81,5.91,10.21,8.87C40.54,48.77,41.25,48.06,40.76,47.64L40.76,47.64z"/>
			</g>
		</g>
	</g>
	<g id="_x3C_Radiell_upprepning_x3E__00000087411232787125221920000002020904522351981187_">
		<g>
			<g>
				<path class="st0" d="M57.91,33.04c-2.43-3.8-4.87-7.59-7.3-11.39c-0.35-0.54-1.21-0.04-0.86,0.5c2.43,3.8,4.87,7.59,7.3,11.39
					C57.39,34.09,58.26,33.59,57.91,33.04L57.91,33.04z"/>
			</g>
		</g>
	</g>
	<g id="_x3C_Radiell_upprepning_x3E__00000093167144385784446830000018037445440687283104_">
		<g>
			<g>
				<path class="st0" d="M78.48,23.87c-1.27-4.33-2.53-8.66-3.8-12.98c-0.18-0.62-1.15-0.35-0.96,0.27
					c1.27,4.33,2.53,8.66,3.8,12.98C77.7,24.75,78.66,24.49,78.48,23.87L78.48,23.87z"/>
			</g>
		</g>
	</g>
	<g id="_x3C_Radiell_upprepning_x3E__00000163791246172312582070000002818798676767512752_">
		<g>
			<g>
				<path class="st0" d="M100.81,20.86c0.01-4.51,0.01-9.02,0.02-13.53c0-0.64-1-0.64-1,0c-0.01,4.51-0.01,9.02-0.02,13.53
					C99.81,21.51,100.81,21.51,100.81,20.86L100.81,20.86z"/>
			</g>
		</g>
	</g>
	<g id="_x3C_Radiell_upprepning_x3E__00000035491585671741890310000003293927541706060193_">
		<g>
			<g>
				<path class="st0" d="M123.08,24.27c1.28-4.33,2.55-8.65,3.83-12.98c0.18-0.62-0.78-0.88-0.96-0.27
					c-1.28,4.33-2.55,8.65-3.83,12.98C121.93,24.62,122.9,24.89,123.08,24.27L123.08,24.27z"/>
			</g>
		</g>
	</g>
	<g id="_x3C_Radiell_upprepning_x3E__00000173874334912607726150000003734816319671562171_">
		<g>
			<g>
				<path class="st0" d="M143.49,33.81c2.44-3.79,4.88-7.58,7.33-11.37c0.35-0.54-0.52-1.04-0.86-0.5
					c-2.44,3.79-4.88,7.58-7.33,11.37C142.28,33.85,143.14,34.35,143.49,33.81L143.49,33.81z"/>
			</g>
		</g>
	</g>
	<g id="_x3C_Radiell_upprepning_x3E__00000013156601815070745400000011788535031167300510_">
		<g>
			<g>
				<path class="st0" d="M160.39,48.72c3.41-2.95,6.82-5.9,10.23-8.85c0.49-0.42-0.22-1.13-0.71-0.71
					c-3.41,2.95-6.82,5.9-10.23,8.85C159.2,48.43,159.91,49.13,160.39,48.72L160.39,48.72z"/>
			</g>
		</g>
	</g>
	<g id="_x3C_Radiell_upprepning_x3E__00000131361335841467442590000016427234160640620177_">
		<g>
			<g>
				<path class="st0" d="M172.41,67.78c4.1-1.87,8.21-3.74,12.31-5.6c0.58-0.27,0.08-1.13-0.5-0.86c-4.1,1.87-8.21,3.74-12.31,5.6
					C171.32,67.18,171.83,68.05,172.41,67.78L172.41,67.78z"/>
			</g>
		</g>
	</g>
	<g id="_x3C_Radiell_upprepning_x3E__00000140722319483131572690000015533533427111275409_">
		<g>
			<g>
				<path class="st0" d="M178.57,89.47c4.46-0.64,8.93-1.27,13.39-1.91c0.63-0.09,0.36-1.05-0.27-0.96
					c-4.46,0.64-8.93,1.27-13.39,1.91C177.67,88.59,177.94,89.56,178.57,89.47L178.57,89.47z"/>
			</g>
		</g>
	</g>
	<g id="_x3C_Radiell_upprepning_x3E__00000043442837099002399470000009085938106909653182_">
		<g>
			<g>
				<path class="st0" d="M178.24,111.99c4.46,0.65,8.93,1.29,13.39,1.94c0.63,0.09,0.9-0.87,0.27-0.96
					c-4.46-0.65-8.93-1.29-13.39-1.94C177.87,110.94,177.6,111.9,178.24,111.99L178.24,111.99z"/>
			</g>
		</g>
	</g>
	<g id="_x3C_Radiell_upprepning_x3E__00000113344999482277997190000005724526219019918520_">
		<g>
			<g>
				<path class="st0" d="M171.7,133.54c4.1,1.88,8.2,3.76,12.3,5.63c0.58,0.27,1.09-0.6,0.5-0.86c-4.1-1.88-8.2-3.76-12.3-5.63
					C171.63,132.41,171.12,133.27,171.7,133.54L171.7,133.54z"/>
			</g>
		</g>
	</g>
	<g id="_x3C_Radiell_upprepning_x3E__00000004503999900547275830000012439257775583304597_">
		<g>
			<g>
				<path class="st0" d="M159.37,152.37c3.4,2.96,6.81,5.91,10.21,8.87c0.48,0.42,1.19-0.28,0.71-0.71
					c-3.4-2.96-6.81-5.91-10.21-8.87C159.59,151.25,158.88,151.95,159.37,152.37L159.37,152.37z"/>
			</g>
		</g>
	</g>
	<g id="_x3C_Radiell_upprepning_x3E__00000090998956468675293650000015746585868383455142_">
		<g>
			<g>
				<path class="st0" d="M142.22,166.97c2.43,3.8,4.87,7.59,7.3,11.39c0.35,0.54,1.21,0.04,0.86-0.5c-2.43-3.8-4.87-7.59-7.3-11.39
					C142.74,165.93,141.87,166.43,142.22,166.97L142.22,166.97z"/>
			</g>
		</g>
	</g>
	<g id="_x3C_Radiell_upprepning_x3E__00000142886216583691313760000004002799613769355708_">
		<g>
			<g>
				<path class="st0" d="M121.65,176.15c1.27,4.33,2.53,8.66,3.8,12.98c0.18,0.62,1.15,0.35,0.96-0.27
					c-1.27-4.33-2.53-8.66-3.8-12.98C122.43,175.27,121.47,175.53,121.65,176.15L121.65,176.15z"/>
			</g>
		</g>
	</g>
</g>
</svg>
