<?xml version="1.0" encoding="utf-8"?>
<!-- Generator: Adobe Illustrator 27.9.0, SVG Export Plug-In . SVG Version: 6.00 Build 0)  -->
<svg version="1.1" id="Lager_1" xmlns="http://www.w3.org/2000/svg" xmlns:xlink="http://www.w3.org/1999/xlink" x="0px" y="0px"
	 viewBox="0 0 200 200" style="enable-background:new 0 0 200 200;" xml:space="preserve">
<style type="text/css">
	.st0{fill:#BA0000;}
</style>
<g>
	<g>
		<g>
			<g>
				<path class="st0" d="M99.62,167.43c0.01,9.14,0.02,18.27,0.02,27.41c0,0.64,1,0.64,1,0c-0.01-9.14-0.02-18.27-0.02-27.41
					C100.62,166.79,99.62,166.79,99.62,167.43L99.62,167.43z"/>
			</g>
		</g>
	</g>
	<g>
		<g>
			<g>
				<path class="st0" d="M80.64,164.58c-2.57,8.77-5.13,17.54-7.7,26.31c-0.18,0.62,0.78,0.88,0.96,0.27
					c2.57-8.77,5.13-17.54,7.7-26.31C81.79,164.23,80.82,163.96,80.64,164.58L80.64,164.58z"/>
			</g>
		</g>
	</g>
	<g>
		<g>
			<g>
				<path class="st0" d="M63.23,156.51c-4.93,7.69-9.87,15.38-14.8,23.07c-0.35,0.54,0.52,1.05,0.86,0.5
					c4.93-7.69,9.87-15.38,14.8-23.07C64.44,156.47,63.58,155.96,63.23,156.51L63.23,156.51z"/>
			</g>
		</g>
	</g>
	<g>
		<g>
			<g>
				<path class="st0" d="M48.79,143.85c-6.9,5.99-13.8,11.98-20.7,17.97c-0.49,0.42,0.22,1.13,0.71,0.71
					c6.9-5.99,13.8-11.98,20.7-17.97C49.99,144.13,49.28,143.43,48.79,143.85L48.79,143.85z"/>
			</g>
		</g>
	</g>
	<g>
		<g>
			<g>
				<path class="st0" d="M38.51,127.63c-8.31,3.8-16.62,7.6-24.92,11.41c-0.58,0.27-0.08,1.13,0.5,0.86
					c8.31-3.8,16.62-7.6,24.92-11.41C39.6,128.23,39.09,127.37,38.51,127.63L38.51,127.63z"/>
			</g>
		</g>
	</g>
	<g>
		<g>
			<g>
				<path class="st0" d="M33.2,109.18c-9.04,1.31-18.09,2.62-27.13,3.92c-0.63,0.09-0.36,1.06,0.27,0.96
					c9.04-1.31,18.09-2.62,27.13-3.92C34.1,110.05,33.83,109.09,33.2,109.18L33.2,109.18z"/>
			</g>
		</g>
	</g>
	<g>
		<g>
			<g>
				<path class="st0" d="M33.45,89.99c-9.04-1.29-18.09-2.59-27.13-3.88c-0.63-0.09-0.9,0.87-0.27,0.96
					c9.04,1.29,18.09,2.59,27.13,3.88C33.82,91.04,34.09,90.08,33.45,89.99L33.45,89.99z"/>
			</g>
		</g>
	</g>
	<g>
		<g>
			<g>
				<path class="st0" d="M38.96,71.62c-8.31-3.79-16.63-7.58-24.94-11.37c-0.58-0.26-1.09,0.6-0.5,0.86
					c8.31,3.79,16.63,7.58,24.94,11.37C39.04,72.75,39.55,71.89,38.96,71.62L38.96,71.62z"/>
			</g>
		</g>
	</g>
	<g>
		<g>
			<g>
				<path class="st0" d="M49.43,55.54c-6.91-5.98-13.82-11.96-20.73-17.93c-0.48-0.42-1.19,0.29-0.71,0.71
					c6.91,5.98,13.82,11.96,20.73,17.93C49.21,56.67,49.92,55.97,49.43,55.54L49.43,55.54z"/>
			</g>
		</g>
	</g>
	<g>
		<g>
			<g>
				<path class="st0" d="M64,43.07c-4.95-7.68-9.89-15.36-14.84-23.05c-0.35-0.54-1.21-0.04-0.86,0.5
					c4.95,7.68,9.89,15.36,14.84,23.05C63.48,44.11,64.35,43.61,64,43.07L64,43.07z"/>
			</g>
		</g>
	</g>
	<g>
		<g>
			<g>
				<path class="st0" d="M81.5,35.2c-2.58-8.76-5.16-17.53-7.74-26.29c-0.18-0.62-1.15-0.35-0.96,0.27
					c2.58,8.76,5.16,17.53,7.74,26.29C80.72,36.08,81.68,35.82,81.5,35.2L81.5,35.2z"/>
			</g>
		</g>
	</g>
	<g>
		<g>
			<g>
				<path class="st0" d="M100.51,32.59c-0.01-9.14-0.02-18.27-0.02-27.41c0-0.64-1-0.64-1,0c0.01,9.14,0.02,18.27,0.02,27.41
					C99.51,33.23,100.51,33.23,100.51,32.59L100.51,32.59z"/>
			</g>
		</g>
	</g>
	<g>
		<g>
			<g>
				<path class="st0" d="M119.49,35.43c2.57-8.77,5.13-17.54,7.7-26.31c0.18-0.62-0.78-0.88-0.96-0.27
					c-2.57,8.77-5.13,17.54-7.7,26.31C118.34,35.79,119.31,36.05,119.49,35.43L119.49,35.43z"/>
			</g>
		</g>
	</g>
	<g>
		<g>
			<g>
				<path class="st0" d="M136.9,43.51c4.93-7.69,9.87-15.38,14.8-23.07c0.35-0.54-0.52-1.05-0.86-0.5
					c-4.93,7.69-9.87,15.38-14.8,23.07C135.69,43.55,136.55,44.05,136.9,43.51L136.9,43.51z"/>
			</g>
		</g>
	</g>
	<g>
		<g>
			<g>
				<path class="st0" d="M151.34,56.17c6.9-5.99,13.8-11.98,20.7-17.97c0.49-0.42-0.22-1.13-0.71-0.71
					c-6.9,5.99-13.8,11.98-20.7,17.97C150.14,55.88,150.85,56.59,151.34,56.17L151.34,56.17z"/>
			</g>
		</g>
	</g>
	<g>
		<g>
			<g>
				<path class="st0" d="M161.62,72.38c8.31-3.8,16.62-7.6,24.92-11.41c0.58-0.27,0.08-1.13-0.5-0.86
					c-8.31,3.8-16.62,7.6-24.92,11.41C160.53,71.78,161.04,72.65,161.62,72.38L161.62,72.38z"/>
			</g>
		</g>
	</g>
	<g>
		<g>
			<g>
				<path class="st0" d="M166.93,90.84c9.04-1.31,18.09-2.62,27.13-3.92c0.63-0.09,0.36-1.06-0.27-0.96
					c-9.04,1.31-18.09,2.62-27.13,3.92C166.03,89.97,166.3,90.93,166.93,90.84L166.93,90.84z"/>
			</g>
		</g>
	</g>
	<g>
		<g>
			<g>
				<path class="st0" d="M166.68,110.03c9.04,1.29,18.09,2.59,27.13,3.88c0.63,0.09,0.9-0.87,0.27-0.96
					c-9.04-1.29-18.09-2.59-27.13-3.88C166.31,108.98,166.04,109.94,166.68,110.03L166.68,110.03z"/>
			</g>
		</g>
	</g>
	<g>
		<g>
			<g>
				<path class="st0" d="M161.17,128.4c8.31,3.79,16.63,7.58,24.94,11.37c0.58,0.26,1.09-0.6,0.5-0.86
					c-8.31-3.79-16.63-7.58-24.94-11.37C161.09,127.27,160.58,128.13,161.17,128.4L161.17,128.4z"/>
			</g>
		</g>
	</g>
	<g>
		<g>
			<g>
				<path class="st0" d="M150.7,144.47c6.91,5.98,13.82,11.96,20.73,17.93c0.48,0.42,1.19-0.29,0.71-0.71
					c-6.91-5.98-13.82-11.96-20.73-17.93C150.92,143.35,150.21,144.05,150.7,144.47L150.7,144.47z"/>
			</g>
		</g>
	</g>
	<g>
		<g>
			<g>
				<path class="st0" d="M136.13,156.95c4.95,7.68,9.89,15.36,14.84,23.05c0.35,0.54,1.21,0.04,0.86-0.5
					c-4.95-7.68-9.89-15.36-14.84-23.05C136.65,155.91,135.78,156.41,136.13,156.95L136.13,156.95z"/>
			</g>
		</g>
	</g>
	<g>
		<g>
			<g>
				<path class="st0" d="M118.63,164.82c2.58,8.76,5.16,17.53,7.74,26.29c0.18,0.62,1.15,0.35,0.96-0.27
					c-2.58-8.76-5.16-17.53-7.74-26.29C119.41,163.93,118.45,164.2,118.63,164.82L118.63,164.82z"/>
			</g>
		</g>
	</g>
</g>
</svg>
